<?xml version="1.0" encoding="UTF-8"?>
<!DOCTYPE svg PUBLIC "-//W3C//DTD SVG 1.1//EN" "http://www.w3.org/Graphics/SVG/1.1/DTD/svg11.dtd">
<svg xmlns="http://www.w3.org/2000/svg" version="1.1" width="351px" height="127px" style="shape-rendering:geometricPrecision; text-rendering:geometricPrecision; image-rendering:optimizeQuality; fill-rule:evenodd; clip-rule:evenodd" xmlns:xlink="http://www.w3.org/1999/xlink">
<g><path style="opacity:1" fill="#fcfbfb" d="M -0.5,-0.5 C 116.5,-0.5 233.5,-0.5 350.5,-0.5C 350.5,41.8333 350.5,84.1667 350.5,126.5C 233.5,126.5 116.5,126.5 -0.5,126.5C -0.5,84.1667 -0.5,41.8333 -0.5,-0.5 Z"/></g>
<g><path style="opacity:1" fill="#0d0706" d="M 29.5,11.5 C 126.167,11.3333 222.834,11.5 319.5,12C 320,12.5 320.5,13 321,13.5C 321.667,47.5 321.667,81.5 321,115.5C 320.5,116 320,116.5 319.5,117C 223.167,117.667 126.833,117.667 30.5,117C 30,116.5 29.5,116 29,115.5C 28.1742,80.7619 28.3408,46.0952 29.5,11.5 Z"/></g>
<g><path style="opacity:1" fill="#bdbdbd" d="M 106.5,15.5 C 106.5,15.1667 106.5,14.8333 106.5,14.5C 176.833,14.5 247.167,14.5 317.5,14.5C 317.5,47.5 317.5,80.5 317.5,113.5C 317.167,113.5 316.833,113.5 316.5,113.5C 316.5,80.8333 316.5,48.1667 316.5,15.5C 246.5,15.5 176.5,15.5 106.5,15.5 Z"/></g>
<g><path style="opacity:1" fill="#fc3232" d="M 32.5,14.5 C 55.7417,14.1726 78.9083,14.5059 102,15.5C 102.5,48.165 102.667,80.8316 102.5,113.5C 79.1667,113.5 55.8333,113.5 32.5,113.5C 32.5,80.5 32.5,47.5 32.5,14.5 Z"/></g>
<g><path style="opacity:1" fill="#fdfdfd" d="M 106.5,15.5 C 176.5,15.5 246.5,15.5 316.5,15.5C 316.5,48.1667 316.5,80.8333 316.5,113.5C 246.5,113.5 176.5,113.5 106.5,113.5C 106.5,80.8333 106.5,48.1667 106.5,15.5 Z"/></g>
<g><path style="opacity:1" fill="#fff9f8" d="M 71.5,21.5 C 74.1194,21.2317 76.6194,21.565 79,22.5C 79.7736,26.8118 79.2736,30.9785 77.5,35C 79.3189,37.4893 81.1522,39.9893 83,42.5C 83.3333,45.8333 83.6667,49.1667 84,52.5C 87.6757,57.3417 91.8424,61.675 96.5,65.5C 96.0814,66.6721 95.4147,67.6721 94.5,68.5C 90.7242,63.6938 86.2242,59.6938 81,56.5C 79.9196,54.0038 78.5862,51.6705 77,49.5C 70.8793,55.5563 69.7126,62.5563 73.5,70.5C 72.3451,75.1798 72.1784,79.8465 73,84.5C 69.5681,89.7006 66.4014,95.034 63.5,100.5C 65.0642,103.286 67.3976,105.119 70.5,106C 65.5111,106.499 60.5111,106.666 55.5,106.5C 57.819,100.551 60.1524,94.5511 62.5,88.5C 57.1364,88.337 52.4697,90.0037 48.5,93.5C 47.52,96.0865 47.1866,98.7531 47.5,101.5C 45.6096,101.703 44.1096,101.037 43,99.5C 42.282,95.8233 41.9486,92.1566 42,88.5C 48.4413,86.3657 54.9413,84.3657 61.5,82.5C 61.5086,80.6916 61.0086,79.0249 60,77.5C 57.6921,76.3589 55.8587,74.6922 54.5,72.5C 55.9108,70.9825 55.7441,69.6492 54,68.5C 53.3333,62.1667 53.3333,55.8333 54,49.5C 56.5138,45.1345 59.0138,40.8012 61.5,36.5C 64.1485,34.3418 67.1485,33.0084 70.5,32.5C 70.244,28.7307 70.5773,25.0641 71.5,21.5 Z"/></g>
<g><path style="opacity:1" fill="#0e0e0e" d="M 148.5,39.5 C 153.244,39.0395 157.244,40.5395 160.5,44C 159.601,45.2362 158.434,46.0696 157,46.5C 154.67,44.9574 152.17,44.4574 149.5,45C 148.426,45.7387 147.759,46.7387 147.5,48C 152.016,50.4265 156.516,52.9265 161,55.5C 162.45,60.7683 160.617,64.2683 155.5,66C 149.433,67.8333 144.766,66.1666 141.5,61C 143.081,60.2935 144.581,59.4601 146,58.5C 149.207,62.191 152.374,62.3577 155.5,59C 155.095,58.0546 154.428,57.3879 153.5,57C 145.195,56.6448 141.695,52.4782 143,44.5C 144.73,42.5981 146.563,40.9314 148.5,39.5 Z"/></g>
<g><path style="opacity:1" fill="#101010" d="M 164.5,40.5 C 169.511,40.3341 174.511,40.5007 179.5,41C 184.743,45.5884 184.743,50.2551 179.5,55C 176.518,55.498 173.518,55.6646 170.5,55.5C 170.5,59.1667 170.5,62.8333 170.5,66.5C 168.5,66.5 166.5,66.5 164.5,66.5C 164.5,57.8333 164.5,49.1667 164.5,40.5 Z"/></g>
<g><path style="opacity:1" fill="#0e0e0e" d="M 194.5,39.5 C 205.999,39.4975 211.499,45.1642 211,56.5C 207.34,65.7451 200.84,68.5784 191.5,65C 182.752,55.2211 183.752,46.7211 194.5,39.5 Z"/></g>
<g><path style="opacity:1" fill="#0a0a0a" d="M 222.5,56.5 C 221.791,55.596 220.791,55.2627 219.5,55.5C 219.5,59.1667 219.5,62.8333 219.5,66.5C 217.833,66.5 216.167,66.5 214.5,66.5C 214.5,57.8333 214.5,49.1667 214.5,40.5C 219.179,40.3342 223.845,40.5008 228.5,41C 235.128,45.7411 235.128,50.5745 228.5,55.5C 231.288,58.9101 233.955,62.4101 236.5,66C 234.5,66.6667 232.5,66.6667 230.5,66C 227.969,62.6425 225.302,59.4758 222.5,56.5 Z"/></g>
<g><path style="opacity:1" fill="#111111" d="M 238.5,40.5 C 244.833,40.5 251.167,40.5 257.5,40.5C 257.5,42.1667 257.5,43.8333 257.5,45.5C 255.5,45.5 253.5,45.5 251.5,45.5C 251.5,52.5 251.5,59.5 251.5,66.5C 249.5,66.5 247.5,66.5 245.5,66.5C 245.5,59.5 245.5,52.5 245.5,45.5C 243.167,45.5 240.833,45.5 238.5,45.5C 238.5,43.8333 238.5,42.1667 238.5,40.5 Z"/></g>
<g><path style="opacity:1" fill="#101010" d="M 267.5,39.5 C 272.058,39.1771 275.724,40.6771 278.5,44C 277.788,45.442 276.621,46.2753 275,46.5C 271.433,43.4373 268.599,43.9373 266.5,48C 266.645,48.772 266.978,49.4387 267.5,50C 270.774,51.2023 274.107,52.2023 277.5,53C 281.893,58.4368 280.893,62.7701 274.5,66C 268.689,67.6879 264.022,66.1879 260.5,61.5C 261.914,60.376 263.414,59.376 265,58.5C 268.207,62.191 271.374,62.3577 274.5,59C 271.142,56.8922 267.475,55.2256 263.5,54C 260.903,51.6833 260.07,48.85 261,45.5C 262.494,42.6865 264.66,40.6865 267.5,39.5 Z"/></g>
<g><path style="opacity:1" fill="#f8f8f8" d="M 170.5,45.5 C 172.833,45.5 175.167,45.5 177.5,45.5C 177.5,47.1667 177.5,48.8333 177.5,50.5C 175.167,50.5 172.833,50.5 170.5,50.5C 170.5,48.8333 170.5,47.1667 170.5,45.5 Z"/></g>
<g><path style="opacity:1" fill="#f2f2f2" d="M 195.5,45.5 C 203.147,45.3133 206.314,48.98 205,56.5C 199.854,63.4064 195.187,63.073 191,55.5C 190.077,51.0165 191.577,47.6832 195.5,45.5 Z"/></g>
<g><path style="opacity:1" fill="#eeeeee" d="M 219.5,45.5 C 221.857,45.3367 224.19,45.5034 226.5,46C 227.833,47.3333 227.833,48.6667 226.5,50C 224.19,50.4966 221.857,50.6633 219.5,50.5C 219.5,48.8333 219.5,47.1667 219.5,45.5 Z"/></g>
<g><path style="opacity:1" fill="#ff7570" d="M 58.5,50.5 C 59.844,52.1849 59.6773,53.8516 58,55.5C 57.3603,53.735 57.5269,52.0683 58.5,50.5 Z"/></g>
<g><path style="opacity:1" fill="#989898" d="M 222.5,56.5 C 220.881,59.5479 219.881,62.8812 219.5,66.5C 219.5,62.8333 219.5,59.1667 219.5,55.5C 220.791,55.2627 221.791,55.596 222.5,56.5 Z"/></g>
<g><path style="opacity:1" fill="#151515" d="M 170.5,75.5 C 171.833,75.5 173.167,75.5 174.5,75.5C 175.526,79.4108 176.86,83.2441 178.5,87C 178.167,87.5 177.833,88 177.5,88.5C 174.597,84.9052 171.597,84.7385 168.5,88C 167.5,88.6667 166.5,88.6667 165.5,88C 167.592,83.9855 169.259,79.8188 170.5,75.5 Z"/></g>
<g><path style="opacity:1" fill="#1b1b1b" d="M 184.5,75.5 C 192.316,76.81 192.316,77.9766 184.5,79C 182.333,84.8333 184.167,86.6667 190,84.5C 191.824,85.7487 191.657,86.9153 189.5,88C 182.717,89.2176 179.884,86.3843 181,79.5C 181.69,77.6498 182.856,76.3164 184.5,75.5 Z"/></g>
<g><path style="opacity:1" fill="#151515" d="M 197.5,75.5 C 198.833,75.5 200.167,75.5 201.5,75.5C 202.526,79.4108 203.86,83.2441 205.5,87C 205.167,87.5 204.833,88 204.5,88.5C 201.597,84.9052 198.597,84.7385 195.5,88C 194.5,88.6667 193.5,88.6667 192.5,88C 194.592,83.9855 196.259,79.8188 197.5,75.5 Z"/></g>
<g><path style="opacity:1" fill="#171717" d="M 207.5,75.5 C 213.331,74.1862 216.998,76.3529 218.5,82C 217.137,87.6924 213.471,89.859 207.5,88.5C 207.5,84.1667 207.5,79.8333 207.5,75.5 Z"/></g>
<g><path style="opacity:1" fill="#141414" d="M 219.5,75.5 C 222.167,75.5 224.833,75.5 227.5,75.5C 227.5,76.5 227.5,77.5 227.5,78.5C 221.627,78.5981 221.294,79.5981 226.5,81.5C 225.311,82.4287 223.978,82.762 222.5,82.5C 222.5,83.8333 222.5,85.1667 222.5,86.5C 224.288,86.2148 225.955,86.5481 227.5,87.5C 224.914,88.48 222.247,88.8134 219.5,88.5C 219.5,84.1667 219.5,79.8333 219.5,75.5 Z"/></g>
<g><path style="opacity:1" fill="#151515" d="M 240.5,76.5 C 242.423,80.0293 243.089,84.0293 242.5,88.5C 240.78,86.3419 239.947,83.6752 240,80.5C 238.086,85.1527 235.753,85.486 233,81.5C 232.503,83.8098 232.337,86.1432 232.5,88.5C 231.5,88.5 230.5,88.5 229.5,88.5C 229.5,84.1667 229.5,79.8333 229.5,75.5C 232.385,76.545 234.552,78.545 236,81.5C 237.517,79.7605 239.017,78.0938 240.5,76.5 Z"/></g>
<g><path style="opacity:1" fill="#707070" d="M 240.5,76.5 C 241.209,75.596 242.209,75.2627 243.5,75.5C 243.818,80.0323 243.485,84.3656 242.5,88.5C 243.089,84.0293 242.423,80.0293 240.5,76.5 Z"/></g>
<g><path style="opacity:1" fill="#1d1d1d" d="M 244.5,75.5 C 247.292,75.4521 249.125,76.7854 250,79.5C 250.956,78.4214 251.789,77.2547 252.5,76C 253.635,75.2506 254.635,75.4173 255.5,76.5C 252.075,79.762 250.742,83.762 251.5,88.5C 250.5,88.5 249.5,88.5 248.5,88.5C 248.663,86.1432 248.497,83.8098 248,81.5C 246.558,79.6089 245.391,77.6089 244.5,75.5 Z"/></g>
<g><path style="opacity:1" fill="#696969" d="M 210.5,78.5 C 210.5,80.8333 210.5,83.1667 210.5,85.5C 211.5,85.5 212.5,85.5 213.5,85.5C 212.432,86.4345 211.099,86.7678 209.5,86.5C 209.194,83.6146 209.527,80.9479 210.5,78.5 Z"/></g>
<g><path style="opacity:1" fill="#f4f4f4" d="M 210.5,78.5 C 215.068,78.0826 216.568,80.0826 215,84.5C 214.617,85.056 214.117,85.3893 213.5,85.5C 212.5,85.5 211.5,85.5 210.5,85.5C 210.5,83.1667 210.5,80.8333 210.5,78.5 Z"/></g>
<g><path style="opacity:1" fill="#b5b5b5" d="M 171.5,80.5 C 175.774,82.9572 175.441,83.7906 170.5,83C 171.252,82.3292 171.586,81.4959 171.5,80.5 Z"/></g>
<g><path style="opacity:1" fill="#b5b5b5" d="M 198.5,80.5 C 202.774,82.9572 202.441,83.7906 197.5,83C 198.252,82.3292 198.586,81.4959 198.5,80.5 Z"/></g>
<g><path style="opacity:1" fill="#fffafa" d="M 75.5,97.5 C 84.0244,97.3448 86.3578,101.011 82.5,108.5C 75.2023,110.701 72.0356,108.034 73,100.5C 74.045,99.6266 74.8783,98.6266 75.5,97.5 Z"/></g>
<g><path style="opacity:1" fill="#504140" d="M 106.5,14.5 C 106.5,14.8333 106.5,15.1667 106.5,15.5C 106.5,48.1667 106.5,80.8333 106.5,113.5C 176.5,113.5 246.5,113.5 316.5,113.5C 316.833,113.5 317.167,113.5 317.5,113.5C 247.098,114.168 176.598,114.835 106,115.5C 105.171,81.095 105.337,47.4283 106.5,14.5 Z"/></g>
</svg>
